<?xml version="1.0" encoding="UTF-8"?>
<svg id="Layer_2" data-name="Layer 2" xmlns="http://www.w3.org/2000/svg" viewBox="0 0 132.2 73.9">
  <defs>
    <style>
      .cls-1 {
        fill: #fff;
      }

      .cls-2 {
        fill: #666;
      }

      .cls-3 {
        fill: #df5b29;
      }
    </style>
  </defs>
  <g id="Layer_1-2" data-name="Layer 1">
    <g id="Laag_11" data-name="Laag 11">
      <path class="cls-2" d="M11,25.2c-.1.3.1.6.3.8h0"/>
      <path class="cls-1" d="M11.3,26l47.8,47.9h2.9L14.1,26h37.8c5.6,0,10.1-4.4,10.1-10h0v-5.9c0-5.6-4.5-10.1-10.1-10.1H10C4.4,0,0,4.5,0,10.1h0v15h2.1v-15C2.1,5.7,5.7,2.1,10.1,2.1h42c4.4,0,7.9,3.4,8,7.8v6.3c-.1,4.3-3.7,7.8-8,7.8H12.2c-.7.1-1.2.7-1.1,1.3,0,.3.1.5.2.7Z"/>
      <polygon class="cls-3" points="132.2 0 102.1 73.8 99.9 73.8 70 0 72.2 0 101 71.1 129.9 0 132.2 0"/>
    </g>
  </g>
</svg>